<svg xmlns="http://www.w3.org/2000/svg" viewBox="0 0 55 55" xml:space="preserve"><path d="M53.938 26.259h-11.1c-.6 0-1.1.5-1.1 1.1 0 .6.5 1.1 1.1 1.1h11.1c.6 0 1.1-.5 1.1-1.1 0-.7-.5-1.1-1.1-1.1zM6.638 28.359c.6 0 1.1-.5 1.1-1.1 0-.6-.5-1.1-1.1-1.1h-5.5c-.6 0-1.1.5-1.1 1.1 0 .6.5 1.1 1.1 1.1h5.5zM40.938 22.459c.2.4.6.7 1 .7.1 0 .3 0 .4-.1l10.5-3.8c.6-.2.8-.8.6-1.4-.2-.6-.8-.8-1.4-.6l-10.5 3.8c-.5.2-.8.8-.6 1.4zM38.538 18.059c.2.2.5.4.8.4.3 0 .5-.1.7-.3l8.5-7.2c.5-.4.5-1.1.1-1.5-.4-.5-1.1-.5-1.5-.1l-8.5 7.2c-.4.4-.4 1.1-.1 1.5zM34.538 14.659c.2.1.3.1.5.1.4 0 .7-.2.9-.5l5.6-9.6c.3-.5.1-1.2-.4-1.5-.5-.3-1.2-.1-1.5.4l-5.6 9.6c-.2.6 0 1.2.5 1.5zM29.938 13.059h.2c.5 0 1-.4 1.1-.9l1.9-11c.1-.6-.3-1.1-.9-1.2-.6-.1-1.1.3-1.2.9l-1.9 11c-.2.6.2 1.1.8 1.2zM23.838 12.259c.1.5.5.9 1.1.9h.2c.6-.1 1-.7.9-1.2l-1.9-11c-.1-.6-.7-1-1.2-.9-.6.1-1 .7-.9 1.2l1.8 11zM18.938 14.259c.2.3.5.5.9.5.2 0 .4 0 .5-.1.5-.3.7-1 .4-1.5l-5.6-9.6c-.3-.5-1-.7-1.5-.4-.5.3-.7 1-.4 1.5l5.7 9.6zM14.938 18.259c.2.2.4.3.7.3.3 0 .6-.1.8-.4.4-.5.3-1.1-.1-1.5l-8.5-7.2c-.5-.4-1.1-.3-1.5.1-.4.5-.3 1.1.1 1.5l8.5 7.2zM2.238 19.259l9.2 3.3c.1 0 .2.1.4.1.5 0 .9-.3 1-.7.2-.6-.1-1.2-.6-1.4l-9.2-3.3c-.6-.2-1.2.1-1.4.6-.2.6.1 1.2.6 1.4z"></path><path d="M53.638 32.159h-.2c-7 0-14 1.1-20.7 3.3v-1.7c1.4-.8 2-3.2 2-5.4 0-2.8-1-5.7-3.1-5.7s-3.1 3-3.1 5.7c0 2.2.6 4.6 2 5.4v2.4c-.9.3-1.8.7-2.8 1.1v-5.7c0-.3-.1-.5-.3-.7l-5.2-5.9-.1-.1c-.2-.2-.5-.3-.7-.3h-6.8c-.3 0-.6.1-.8.3l-5.3 5.5c-.2.2-.3.5-.3.7v1.3c-2.2-.2-4.4-.3-6.6-.3-.3 0-.7.1-.9.4-.2.2-.3.6-.2.9 2.5 12.5 13.9 21.6 27 21.6 13.2 0 24.5-9.1 27-21.6.1-.5-.3-1.1-.9-1.2zm-22-7.3c.7 1 1 2.3.9 3.5.1 1.2-.2 2.5-.9 3.5-.7-1-1-2.3-.9-3.5-.1-1.3.2-2.5.9-3.5zm-10.2 2.4 4.1 4.6v6.2c0 .4.3.8.7 1 5.7 2.3 11.1 5.4 15.9 9.2-1.8 1.3-3.8 2.3-5.9 3-5.4-5.7-11.8-10.4-18.9-13.8v-5.6l4.1-4.6zm-11.1 5.1 4.7.2v4.3l-4.7-.8v-3.7zm4.7-5.6h3.9l-3.3 3.7-4-.2 3.4-3.5zm-10 12.9c6.2 3.2 11.8 7.5 16.5 12.5-7-1.6-13-6.1-16.5-12.5zm22.4 13.2c-.8 0-1.6 0-2.4-.1-6-6.8-13.2-12.3-21.4-16.2-.3-.7-.5-1.5-.7-2.2 1.7 0 3.5.2 5.2.3v2.4c0 .5.4 1 .9 1.1l6.8 1.1c6.7 3.2 12.8 7.6 18 12.9-2.1.4-4.2.7-6.4.7zm16.5-5.9c-4.2-3.3-8.7-6.2-13.5-8.4 2.4-.9 4.9-1.7 7.5-2.3-.5.8-.9 1.7-1.4 2.5-.3.5 0 1.2.5 1.4.2.1.3.1.5.1.4 0 .8-.2 1-.6.7-1.4 1.5-2.8 2.3-4.1 1.5-.3 3.1-.5 4.7-.7-1.5 2.4-2.8 5-3.9 7.6-.2.5 0 1.2.6 1.4.1.1.3.1.4.1.4 0 .8-.3 1-.7 1.3-3 2.8-5.9 4.6-8.7 1.3-.1 2.5-.2 3.8-.2-1.3 4.9-4.2 9.4-8.1 12.6z"></path><path d="M19.438 21.159c.4.4 1.1.4 1.5-.1 1.7-1.9 4.1-2.9 6.6-2.9 4.9 0 8.9 4 8.9 8.9 0 .8-.1 1.6-.3 2.4-.2.6.2 1.2.7 1.3h.3c.5 0 .9-.3 1-.8.3-1 .4-2 .4-3 0-6.1-5-11.1-11.1-11.1-3.1 0-6.1 1.3-8.2 3.7-.3.5-.3 1.2.2 1.6zM21.438 37.459c.6 0 1.1-.5 1.1-1.1v-2.3c0-.6-.5-1.1-1.1-1.1s-1.1.5-1.1 1.1v2.3c0 .6.5 1.1 1.1 1.1z"></path></svg>